<?xml version="1.0" encoding="UTF-8" standalone="no"?>
<!-- Created with Inkscape (http://www.inkscape.org/) -->

<svg
   width="19.007011mm"
   height="11.197326mm"
   viewBox="0 0 19.007011 11.197326"
   version="1.1"
   id="svg1"
   xml:space="preserve"
   inkscape:version="1.3 (0e150ed6c4, 2023-07-21)"
   sodipodi:docname="pin.svg"
   xmlns:inkscape="http://www.inkscape.org/namespaces/inkscape"
   xmlns:sodipodi="http://sodipodi.sourceforge.net/DTD/sodipodi-0.dtd"
   xmlns="http://www.w3.org/2000/svg"
   xmlns:svg="http://www.w3.org/2000/svg"><sodipodi:namedview
     id="namedview1"
     pagecolor="#ffffff"
     bordercolor="#000000"
     borderopacity="0.25"
     inkscape:showpageshadow="2"
     inkscape:pageopacity="0.0"
     inkscape:pagecheckerboard="0"
     inkscape:deskcolor="#d1d1d1"
     inkscape:document-units="mm"
     inkscape:zoom="5.7941076"
     inkscape:cx="1137.9664"
     inkscape:cy="216.34048"
     inkscape:window-width="1920"
     inkscape:window-height="1129"
     inkscape:window-x="-8"
     inkscape:window-y="-8"
     inkscape:window-maximized="1"
     inkscape:current-layer="layer1" /><defs
     id="defs1" /><g
     inkscape:label="Layer 1"
     inkscape:groupmode="layer"
     id="layer1"
     transform="translate(-281.60398,-52.88444)"><path
       style="fill:#a73c29;fill-opacity:1;stroke-width:0.326591;stroke-linecap:round;stroke-linejoin:round;stroke-opacity:0.176101"
       d="m 287.74296,60.198223 c 0,0 0.52476,-0.106374 0.84826,-0.411508 0.11265,0.698511 1.61259,4.266645 1.61259,4.266645 0,0 -1.99946,-3.451289 -2.46085,-3.855137 z"
       id="path3-2"
       sodipodi:nodetypes="cccc"
       inkscape:export-filename="path3-2.png"
       inkscape:export-xdpi="133.63489"
       inkscape:export-ydpi="133.63489" /><path
       style="fill:#a73c29;fill-opacity:1;stroke-width:0.326591;stroke-linecap:round;stroke-linejoin:round;stroke-opacity:0.176101"
       d="m 287.20586,59.881159 c 0.5888,-0.730228 1.48348,-0.746629 1.48348,-0.746629 0,0 0.017,0.395949 -0.59939,0.708414 -0.52908,0.270152 -0.8841,0.0382 -0.8841,0.0382 z"
       id="path4-6"
       sodipodi:nodetypes="cccc" /><path
       style="fill:#a73c29;fill-opacity:1;stroke-width:0.326591;stroke-linecap:round;stroke-linejoin:round;stroke-opacity:0.176101"
       d="m 286.64093,59.522018 0.36592,0.226662 c 0.55178,-0.806568 1.75614,-0.878895 1.75614,-0.878895 l 0.0204,-0.346709 c 0,0 -1.20177,-0.144492 -2.14247,0.998953 z"
       id="path5-3"
       sodipodi:nodetypes="ccccc" /><path
       id="path6-8"
       style="fill:#a73c29;fill-opacity:1;stroke-width:0.326591;stroke-linecap:round;stroke-linejoin:round;stroke-opacity:0.176101"
       d="m 285.49154,54.542453 c 0.18851,0.555213 0.40118,3.631655 0.95702,4.749649 0.92353,-1.067755 2.20846,-1.084967 2.20846,-1.084967 -0.21603,-0.972976 -2.76544,-3.117776 -3.16548,-3.664682 z m 0.91004,1.875908 1.50079,1.427402 -1.26988,0.575724 z" /><path
       style="fill:#c44531;fill-opacity:1;stroke-width:0.326591;stroke-linecap:round;stroke-linejoin:round;stroke-opacity:0.176101"
       d="m 286.8736,57.974354 -0.10661,-0.830717 0.64644,0.568836 z"
       id="path7-4" /><path
       style="fill:#c44531;fill-opacity:1;stroke-width:0.326591;stroke-linecap:round;stroke-linejoin:round;stroke-opacity:0.176101"
       d="m 286.10327,59.149655 c -0.41099,-0.763882 -0.4385,-1.861998 -0.4385,-1.861998 l -1.13245,-0.501465 0.94108,1.995417 z"
       id="path8-7"
       sodipodi:nodetypes="ccccc" /><path
       style="fill:#c44531;fill-opacity:1;stroke-width:0.326591;stroke-linecap:round;stroke-linejoin:round;stroke-opacity:0.176101"
       d="m 288.78669,57.813232 c -0.34554,-0.795633 -1.19099,-1.496948 -1.19099,-1.496948 l 0.30711,-1.199822 0.9847,1.974245 z"
       id="path8-9-6"
       sodipodi:nodetypes="ccccc" /><path
       id="path9-9"
       style="fill:#c44531;fill-opacity:0.719711;stroke:none;stroke-width:0.326591;stroke-linecap:round;stroke-linejoin:round;stroke-opacity:0.176101"
       d="m 284.91845,53.747369 c 0,0 -2.71064,1.305393 -3.31447,3.71316 0,0 2.21353,0.183604 3.35068,0.937053 -0.43022,-0.886818 -1.02839,-2.158952 -1.02839,-2.158952 l 1.73179,0.722199 c -0.0537,-0.955149 -0.73961,-3.21346 -0.73961,-3.21346 z m -0.59228,0.801782 0.49589,1.474192 -1.41097,-0.61112 z m -0.0841,0.401478 -0.43135,0.345523 0.65326,0.315907 z m -1.19645,0.886598 0.91599,1.29885 -1.56869,-0.248701 c 0.18395,-0.327538 0.6527,-1.050149 0.6527,-1.050149 z m 0.0215,0.437186 -0.26967,0.435688 0.66389,0.101824 z" /><path
       id="path9-8-4"
       style="fill:#c44531;fill-opacity:0.719711;stroke:none;stroke-width:0.326591;stroke-linecap:round;stroke-linejoin:round;stroke-opacity:0.176101"
       d="m 285.31022,53.573446 c 0,0 2.70311,-1.320934 4.96794,-0.30483 0,0 -1.22593,1.852171 -1.33804,3.211662 -0.43022,-0.88682 -1.05912,-2.14405 -1.05912,-2.14405 l -0.50472,1.807176 c -0.71691,-0.633418 -2.06607,-2.56995 -2.06607,-2.56995 z m 0.99634,0.03109 0.8509,1.30197 0.39338,-1.486448 z m 0.36733,0.182512 0.53838,-0.124911 -0.15624,0.708612 z m 1.43693,-0.390915 0.45314,1.523391 0.77565,-1.386 c -0.37113,-0.05811 -1.22879,-0.137395 -1.22879,-0.137395 z m 0.33008,0.287483 0.50911,0.05789 -0.33099,0.584441 z" /><path
       id="path3-9-7"
       style="fill:#4b4b4b;fill-opacity:0.0628931;stroke-width:0.326591;stroke-linecap:round;stroke-linejoin:round;stroke-opacity:0.176101"
       d="m 300.60739,61.86224 c -0.0575,-1.625435 -0.78339,-2.999873 -0.78339,-2.999873 0,0 -1.89335,1.40906 -2.50401,2.145462 l 1.82214,0.447913 c 0,0 -1.23684,0.668028 -2.10975,1.125809 1.36233,0.06947 3.25182,1.236707 3.25182,1.236707 0.26569,-0.64562 0.34569,-1.319979 0.32319,-1.956018 z m -0.51845,-0.206177 c 0,0 -0.0523,0.859654 -0.0988,1.232428 l -1.40966,-0.731779 z m -0.0414,-0.559025 -1.49814,-0.34666 1.27477,-0.891198 z m -0.25258,-0.330763 -0.14174,-0.534339 -0.57146,0.400254 z m 0.0169,1.228606 -0.6364,0.198111 0.59457,0.312672 z m -0.17411,-3.518732 c 0,0 -1.38964,-2.668456 -3.81513,-3.196583 0,0 -0.1141,2.218293 -0.83157,3.378478 0.87291,-0.457778 2.12564,-1.095447 2.12564,-1.095447 l -0.66763,1.753511 c 0.95299,-0.08362 3.18869,-0.839958 3.18869,-0.839958 z m -0.77662,0.597854 c -0.54904,0.205811 -3.6173,0.514655 -4.71735,1.105235 1.09616,0.889642 1.15363,2.17331 1.15363,2.17331 0.96573,-0.246406 3.02961,-2.861575 3.56372,-3.278545 z m -0.0433,-1.164703 -1.45786,0.541762 0.56657,-1.429331 z m -0.40379,-0.07138 -0.35884,-0.420401 -0.29539,0.662934 z m -0.0511,3.663978 -1.20886,-0.269356 c 0,0 -0.67456,0.867094 -1.45898,1.237394 l 0.72542,0.07801 z m -0.87263,-4.832145 -1.26944,0.956242 0.19944,-1.575616 c 0.33314,0.173604 1.07,0.619374 1.07,0.619374 z m -0.43617,0.03521 -0.44394,-0.255868 -0.081,0.666695 z m -0.0394,3.337356 -1.37968,1.544669 -0.61524,-1.2512 z m -0.42617,-1.856846 -1.96511,1.00308 -0.3481,0.6411 c 0.75063,-0.434712 1.84746,-0.496518 1.84746,-0.496518 z m -0.28736,2.244664 -0.82691,0.132658 0.27867,0.531405 z m -1.31348,1.941441 c -0.007,-0.324315 -0.11507,-1.257935 -1.06761,-1.99279 l -0.21521,0.372787 c 0.82346,0.526243 0.93355,1.727797 0.93355,1.727797 l 0.34712,0.0095 c 0,0 0.004,-0.04245 0.002,-0.117295 z m -0.61625,0.04241 c 0,0 -0.0444,-0.89368 -0.79276,-1.459325 0,0 -0.22071,0.362016 0.0659,0.88238 0.33162,0.606241 0.72688,0.576945 0.72688,0.576945 z m -0.65494,-0.07769 c -0.31512,-0.313785 -0.43782,-0.835013 -0.43782,-0.835013 -0.3892,0.47382 -3.77619,2.580481 -3.77619,2.580481 0,0 3.51937,-1.611004 4.21401,-1.745468 z" /></g></svg>
